# xmcd
#
# Track frame offsets:
#	183
#	18663
#	38280
#	54255
#	70985
#	86833
#	95520
#	105310
#	115080
#	128433
#	151398
#	168010
#	187755
#	201143
#	216238
#	232593
#	244818
#	257448
#	273358
#	287738
#
# Disc length: 3994 seconds
#
# Revision: 1
# Processed by: cddbd v1.4b42PL1 Copyright (c) Steve Scherf et al.
# Submitted via: audiograbber 1.80
#
DISCID=f90f9814
DTITLE=Louis Armstrong - Satchmo - Louis Armstrong's 20 Golden Greats
DYEAR=1900
DGENRE=
TTITLE0=Black And Blue
TTITLE1=I'm Confessing That I Lov YouI
TTITLE2=Up The Lazy River
TTITLE3=You Rascal You
TTITLE4=Ain't Misbehavin'
TTITLE5=Struttin' With Barbecue
TTITLE6=Dippermouth Blues
TTITLE7=Muskrat Ramble
TTITLE8=St. Louis Blue
TTITLE9=Rockin' Chair 1
TTITLE10=Back O'Town Blues
TTITLE11=Basin Street Blues
TTITLE12=On The Sunny Side Of The Street
TTITLE13=Do You Know What It Means To Miss New Orleans
TTITLE14=Gotta A Right To Sing The Blues
TTITLE15=When The Saints Go Marching In
TTITLE16=Swing That Magic
TTITLE17=Stardust
TTITLE18=Some Of These Days
TTITLE19=Jeepers Creepers
EXTD=
EXTT0=
EXTT1=
EXTT2=
EXTT3=
EXTT4=
EXTT5=
EXTT6=
EXTT7=
EXTT8=
EXTT9=
EXTT10=
EXTT11=
EXTT12=
EXTT13=
EXTT14=
EXTT15=
EXTT16=
EXTT17=
EXTT18=
EXTT19=
PLAYORDER=
